<?xml version="1.0" encoding="utf-8"?>
<!-- Generator: Adobe Illustrator 17.0.0, SVG Export Plug-In . SVG Version: 6.00 Build 0)  -->
<!DOCTYPE svg PUBLIC "-//W3C//DTD SVG 1.1//EN" "http://www.w3.org/Graphics/SVG/1.1/DTD/svg11.dtd">
<svg version="1.1" id="Capa_1" xmlns="http://www.w3.org/2000/svg" xmlns:xlink="http://www.w3.org/1999/xlink" x="0px" y="0px"
	 width="512px" height="512px" viewBox="0 0 512 512" enable-background="new 0 0 512 512" xml:space="preserve">
<g>
	<path fill="#949079" d="M383.979,0.109l-66.394-0.107c-74.592,0-122.796,49.456-122.796,126.003v58.096h-66.756
		c-5.769,0-10.44,4.677-10.44,10.445v84.174c0,5.769,4.677,10.44,10.44,10.44h66.756v212.398c0,5.769,4.671,10.44,10.44,10.44
		h87.098c5.769,0,10.44-4.677,10.44-10.44V289.16h78.054c5.769,0,10.44-4.671,10.44-10.44l0.032-84.174
		c0-2.77-1.103-5.422-3.057-7.382c-1.955-1.96-4.618-3.063-7.388-3.063h-78.08v-49.248c0-23.671,5.641-35.687,36.476-35.687
		l44.726-0.016c5.763,0,10.435-4.677,10.435-10.44v-78.16C394.403,4.791,389.737,0.12,383.979,0.109z"/>
</g>
</svg>
