<?xml version="1.0" encoding="utf-8"?>
<!-- Generator: Adobe Illustrator 17.0.0, SVG Export Plug-In . SVG Version: 6.00 Build 0)  -->
<!DOCTYPE svg PUBLIC "-//W3C//DTD SVG 1.1//EN" "http://www.w3.org/Graphics/SVG/1.1/DTD/svg11.dtd">
<svg version="1.1" id="Capa_1" xmlns="http://www.w3.org/2000/svg" xmlns:xlink="http://www.w3.org/1999/xlink" x="0px" y="0px"
	 width="512px" height="512px" viewBox="0 0 512 512" enable-background="new 0 0 512 512" xml:space="preserve">
<g>
	<g>
		<g>
			<path fill="#949079" d="M392.93,234.169H209.563v61.123h111.872c-16.689,53.138-66.323,91.684-124.971,91.684
				c-72.338,0-130.976-58.642-130.976-130.977c0-72.338,58.64-130.976,130.976-130.976c36.427,0,69.374,14.874,93.115,38.875
				l44.367-48.225c-35.434-34.721-83.953-56.137-137.483-56.137C87.96,59.535,0,147.495,0,255.999s87.96,196.466,196.465,196.466
				c95.046,0,178.261-67.499,196.466-157.172V234.17L392.93,234.169L392.93,234.169z"/>
			<polygon fill="#949079" points="512,234.065 474.494,234.065 474.494,196.559 442.343,196.559 442.343,234.065 404.836,234.065 
				404.836,266.213 442.343,266.213 442.343,303.72 474.494,303.72 474.494,266.213 512,266.213 			"/>
		</g>
	</g>
</g>
</svg>
