<?xml version="1.0" encoding="utf-8"?>
<!-- Generator: Adobe Illustrator 17.0.0, SVG Export Plug-In . SVG Version: 6.00 Build 0)  -->
<!DOCTYPE svg PUBLIC "-//W3C//DTD SVG 1.1//EN" "http://www.w3.org/Graphics/SVG/1.1/DTD/svg11.dtd">
<svg version="1.1" id="Capa_1" xmlns="http://www.w3.org/2000/svg" xmlns:xlink="http://www.w3.org/1999/xlink" x="0px" y="0px"
	 width="512px" height="512px" viewBox="0 0 512 512" enable-background="new 0 0 512 512" xml:space="preserve">
<g>
	<path id="LinkedIn" fill="#949079" d="M512,311.334v189.29H402.262V324.011c0-44.366-15.872-74.645-55.594-74.645
		c-30.322,0-48.367,20.405-56.306,40.144c-2.895,7.057-3.64,16.878-3.64,26.756v184.357H176.947c0,0,1.478-299.123,0-330.114
		h109.764v46.792c-0.223,0.35-0.512,0.727-0.721,1.067h0.721v-1.067c14.583-22.461,40.627-54.548,98.922-54.548
		C457.857,162.753,512,209.936,512,311.334z M62.117,11.378C24.563,11.378,0,36.01,0,68.402c0,31.687,23.853,57.067,60.66,57.067
		h0.733c38.281,0,62.089-25.375,62.089-57.067C122.761,36.01,99.675,11.378,62.117,11.378z M6.52,500.624h109.733V170.509H6.52
		V500.624z"/>
</g>
</svg>
